<svg width="161" height="138" viewBox="0 0 161 138" fill="none" xmlns="http://www.w3.org/2000/svg">
<path d="M21.5352 127.62C21.1017 128.633 20.4818 129.554 19.7078 130.338C18.9285 131.123 18.0057 131.752 16.9895 132.19C15.9491 132.646 14.8367 132.873 13.6499 132.873C12.4473 132.873 11.3263 132.646 10.2859 132.19C9.24549 131.736 8.34277 131.123 7.58132 130.35C6.81631 129.579 6.21143 128.672 5.76467 127.632C5.31739 126.593 5.094 125.487 5.094 124.317C5.094 123.147 5.31739 122.042 5.76467 121.002C6.21143 119.963 6.81631 119.056 7.58132 118.284C8.34328 117.513 9.24549 116.899 10.2859 116.443C11.3263 115.989 12.4473 115.762 13.6499 115.762C14.8367 115.762 15.9496 115.989 16.99 116.443C18.0294 116.899 18.9362 117.516 19.7078 118.296C20.4816 119.08 21.1015 120.002 21.5352 121.015C21.982 122.047 22.2059 123.147 22.2059 124.317C22.2059 125.487 21.9815 126.589 21.5352 127.62ZM24.7416 98.9659C24.0098 98.9659 23.4039 99.2066 22.9255 99.685C22.4451 100.164 22.2059 100.77 22.2059 101.501V113.664C19.7359 111.665 16.8834 110.667 13.6499 110.667C9.87943 110.667 6.66177 111.999 3.99697 114.664C1.33166 117.33 -0.000488281 120.546 -0.000488281 124.317C-0.000488281 128.087 1.33166 131.305 3.99697 133.97C6.66177 136.635 9.87943 137.967 13.6499 137.967C17.3873 137.967 20.6049 136.635 23.3029 133.97C25.9682 131.337 27.3004 128.119 27.3004 124.317V101.501C27.3004 100.77 27.0525 100.164 26.5568 99.685C26.061 99.2066 25.4562 98.9659 24.7411 98.9659H24.7416ZM51.4789 127.62C51.0451 128.633 50.4246 129.555 49.65 130.338C48.871 131.123 47.9486 131.752 46.9327 132.19C45.8923 132.646 44.7789 132.873 43.5926 132.873C42.39 132.873 41.2685 132.646 40.2296 132.19C39.1892 131.736 38.287 131.123 37.5235 130.35C36.759 129.579 36.1541 128.672 35.7069 127.632C35.2601 126.593 35.0367 125.487 35.0367 124.317C35.0367 123.147 35.2601 122.042 35.7069 121.002C36.1541 119.963 36.759 119.056 37.5235 118.284C38.287 117.513 39.1892 116.899 40.2296 116.443C41.2685 115.989 42.39 115.762 43.5926 115.762C44.7789 115.762 45.8928 115.989 46.9332 116.443C47.9721 116.899 48.8784 117.516 49.65 118.296C50.4244 119.08 51.0448 120.002 51.4789 121.015C51.9252 122.047 52.148 123.147 52.148 124.317C52.148 125.487 51.9252 126.589 51.4789 127.62ZM53.2456 114.664C50.5476 111.999 47.33 110.667 43.5926 110.667C39.8221 110.667 36.6045 111.999 33.9407 114.664C31.2743 117.331 29.9422 120.547 29.9422 124.317C29.9422 128.087 31.2743 131.306 33.9407 133.97C36.6045 136.636 39.8221 137.967 43.5926 137.967C47.33 137.967 50.5476 136.636 53.2456 133.97C55.9104 131.337 57.2441 128.12 57.2441 124.317C57.2267 122.433 56.8896 120.686 56.2317 119.077C55.5738 117.468 54.5793 115.998 53.2456 114.664ZM109.684 113.202C109.684 112.86 109.616 112.536 109.477 112.228C109.344 111.925 109.158 111.648 108.928 111.41C108.7 111.175 108.426 110.988 108.124 110.861C107.807 110.73 107.467 110.664 107.124 110.667C106.641 110.662 106.167 110.797 105.759 111.056L91.1832 120.539V101.526C91.1832 100.812 90.9348 100.207 90.4391 99.7095C89.9444 99.2153 89.3466 98.9664 88.6474 98.9664C87.9314 98.9664 87.327 99.2153 86.8323 99.7095C86.3366 100.207 86.0877 100.812 86.0877 101.526V135.408C86.0877 136.106 86.3366 136.709 86.8323 137.212C87.327 137.715 87.9314 137.967 88.6474 137.967C89.3466 137.967 89.9444 137.715 90.4391 137.212C90.9348 136.709 91.1832 136.106 91.1832 135.408V126.608L94.1571 124.659L105.419 137.31C105.873 137.749 106.442 137.968 107.124 137.968C107.482 137.968 107.815 137.904 108.124 137.773C108.432 137.644 108.7 137.46 108.928 137.225C109.156 136.99 109.339 136.716 109.477 136.408C109.616 136.1 109.684 135.774 109.684 135.434C109.684 134.767 109.448 134.174 108.977 133.654L98.4957 121.855L108.709 115.225C109.358 114.785 109.684 114.113 109.684 113.202ZM67.3948 118.26C68.1811 117.483 69.1073 116.863 70.1244 116.432C71.1648 115.985 72.2781 115.762 73.4644 115.762C74.537 115.762 75.5274 115.941 76.4383 116.297C77.3471 116.655 78.2177 117.184 79.046 117.882C79.513 118.265 80.0995 118.472 80.7035 118.467C81.4354 118.467 82.0397 118.223 82.5197 117.735C82.9986 117.248 83.2393 116.639 83.2393 115.908C83.2393 115.144 82.9465 114.502 82.361 113.981C79.8579 111.773 76.8937 110.667 73.4644 110.667C69.6934 110.667 66.4758 111.999 63.812 114.664C61.1467 117.33 59.8135 120.547 59.8135 124.317C59.8135 128.087 61.1467 131.305 63.812 133.97C66.4758 136.635 69.6934 137.967 73.4644 137.967C76.8764 137.967 79.8421 136.863 82.361 134.652C82.8976 134.115 83.1653 133.492 83.1653 132.775C83.1653 132.044 82.9251 131.439 82.4472 130.959C81.9673 130.48 81.3614 130.24 80.6306 130.24C80.0135 130.257 79.4769 130.435 79.022 130.776C78.2096 131.475 77.3471 131.999 76.4383 132.349C75.5274 132.698 74.537 132.873 73.4644 132.873C72.2781 132.873 71.1648 132.649 70.1244 132.203C69.0845 131.755 68.1741 131.147 67.3948 130.375C66.61 129.597 65.9849 128.674 65.5547 127.656C65.1074 126.617 64.884 125.504 64.884 124.317C64.884 123.132 65.1074 122.017 65.5547 120.977C65.9855 119.96 66.6106 119.037 67.3948 118.26ZM160.316 112.373C159.861 111.934 159.288 111.59 158.599 111.337C157.866 111.076 157.105 110.9 156.332 110.812C155.567 110.719 154.798 110.67 154.027 110.667C152.402 110.667 150.874 110.927 149.445 111.447C148.006 111.972 146.664 112.73 145.472 113.69V113.202C145.472 112.504 145.224 111.906 144.729 111.41C144.234 110.915 143.635 110.667 142.937 110.667C142.221 110.667 141.616 110.915 141.12 111.41C140.626 111.906 140.377 112.504 140.377 113.202V135.433C140.377 136.131 140.626 136.728 141.12 137.224C141.616 137.721 142.221 137.967 142.937 137.967C143.635 137.967 144.233 137.721 144.729 137.224C145.224 136.729 145.472 136.131 145.472 135.433V124.317C145.472 123.132 145.696 122.017 146.142 120.977C146.589 119.938 147.198 119.033 147.97 118.26C148.751 117.482 149.674 116.862 150.688 116.432C151.728 115.985 152.841 115.762 154.027 115.762C155.23 115.762 156.343 115.965 157.368 116.37C157.773 116.55 158.131 116.639 158.44 116.639C158.783 116.642 159.123 116.576 159.439 116.443C159.742 116.318 160.016 116.131 160.244 115.895C160.471 115.661 160.653 115.388 160.792 115.079C160.93 114.771 160.999 114.438 160.999 114.079C160.999 113.381 160.772 112.812 160.316 112.373ZM115.763 121.814C116.022 120.922 116.421 120.106 116.957 119.365C117.485 118.633 118.128 117.991 118.859 117.462C119.596 116.933 120.41 116.518 121.271 116.232C122.148 115.941 123.051 115.794 123.977 115.794C124.903 115.794 125.801 115.941 126.67 116.232C127.524 116.518 128.33 116.933 129.058 117.463C129.786 117.995 130.427 118.637 130.959 119.365C131.505 120.106 131.922 120.934 132.192 121.814H115.763ZM136.628 119.097C135.961 117.48 134.961 116.013 133.631 114.697C130.931 112.032 127.714 110.7 123.977 110.7C120.206 110.7 116.988 112.032 114.324 114.697C111.658 117.363 110.326 120.58 110.326 124.35C110.326 128.12 111.658 131.338 114.324 134.003C116.988 136.668 120.206 138 123.977 138C127.405 138 130.379 136.895 132.898 134.685L132.999 134.593C133.22 134.409 133.407 134.21 133.574 133.961C134.387 132.748 134.096 131.129 132.924 130.344C131.937 129.682 130.645 129.834 129.775 130.624C129.694 130.699 129.454 130.922 129.413 130.955C129.401 130.965 129.389 130.975 129.377 130.986C128.623 131.621 127.805 132.099 126.926 132.418C126.031 132.744 125.049 132.906 123.977 132.906C123.034 132.906 122.128 132.76 121.258 132.467C120.403 132.182 119.598 131.767 118.87 131.236C118.144 130.706 117.507 130.064 116.982 129.334C116.442 128.591 116.03 127.763 115.763 126.884H135.068C135.782 126.884 136.387 126.646 136.884 126.165C137.379 125.687 137.628 125.08 137.628 124.35C137.628 122.466 137.293 120.715 136.629 119.096L136.628 119.097ZM151.618 137.433C150.827 137.433 150.249 136.813 150.249 136.032C150.249 135.262 150.827 134.632 151.608 134.632C152.389 134.632 152.955 135.262 152.955 136.043C152.955 136.813 152.389 137.433 151.618 137.433ZM151.608 134.278C150.603 134.278 149.801 135.059 149.801 136.032C149.801 137.027 150.603 137.807 151.608 137.807C152.624 137.807 153.404 137.027 153.404 136.032C153.404 135.059 152.624 134.277 151.608 134.277" fill="#2496ED"/>
<path d="M151.533 135.958H151.34V135.455C151.383 135.444 151.458 135.434 151.565 135.434C151.822 135.434 151.94 135.541 151.94 135.701C151.94 135.883 151.758 135.958 151.533 135.958ZM152.014 136.086V136.064C152.228 136 152.377 135.851 152.377 135.658C152.377 135.487 152.303 135.347 152.207 135.273C152.078 135.198 151.929 135.144 151.597 135.144C151.308 135.144 151.083 135.166 150.924 135.198V136.952H151.33V136.246H151.523C151.747 136.246 151.854 136.331 151.886 136.523C151.94 136.727 151.972 136.888 152.025 136.952H152.463C152.42 136.888 152.389 136.781 152.335 136.513C152.282 136.279 152.185 136.15 152.014 136.086H152.014ZM147.576 33.4367C147.243 33.1689 144.132 30.8224 137.575 30.8224C135.936 30.8224 134.206 30.9713 132.408 31.2666C131.141 22.5673 123.961 18.3302 123.628 18.1379L121.864 17.123L120.704 18.7933C120.617 18.9177 118.576 21.888 117.575 26.115C116.4 31.0774 117.114 35.7389 119.636 39.7276C116.59 41.4224 111.727 41.8651 110.717 41.8773H29.8321C27.7216 41.8773 25.9968 43.592 25.9886 45.6993C25.9575 53.1389 27.1836 60.3275 29.5342 66.4879C32.3219 73.7938 36.4688 79.1729 41.8591 82.4747C47.9027 86.1773 57.7429 88.3 68.856 88.3C74.0561 88.3 79.2383 87.8308 83.8426 86.9434C91.0996 85.5434 97.6874 83.1519 103.422 79.8354C108.433 76.9356 112.942 73.2435 116.773 68.9023C123.184 61.653 127.001 53.5571 129.84 46.3914C130.217 46.4071 130.594 46.4149 130.971 46.4149C137.988 46.4149 142.302 43.6104 144.685 41.2572C147.269 38.7056 148.189 36.1606 148.285 35.8791L148.787 34.4093L147.576 33.4367Z" fill="#2496ED"/>
<path d="M37.3292 39.512H48.1674C48.419 39.512 48.6603 39.412 48.8382 39.2341C49.0161 39.0562 49.1161 38.8149 49.1161 38.5633V28.9068C49.1161 28.6552 49.0161 28.4139 48.8382 28.236C48.6603 28.0581 48.419 27.9582 48.1674 27.9582H37.3297C37.0781 27.9582 36.8368 28.0581 36.6589 28.236C36.481 28.4139 36.3811 28.6552 36.3811 28.9068V38.5633C36.3811 38.8149 36.481 39.0562 36.6589 39.2341C36.8368 39.412 37.0781 39.512 37.3297 39.512H37.3292ZM52.2649 39.512H63.1026C63.2272 39.512 63.3506 39.4875 63.4657 39.4399C63.5809 39.3923 63.6855 39.3224 63.7737 39.2343C63.8618 39.1462 63.9317 39.0416 63.9794 38.9265C64.0271 38.8114 64.0517 38.688 64.0517 38.5633V28.9068C64.0517 28.6552 63.9518 28.4139 63.7739 28.236C63.596 28.0581 63.3547 27.9582 63.1031 27.9582H52.2654C52.0138 27.9582 51.7725 28.0581 51.5946 28.236C51.4167 28.4139 51.3167 28.6552 51.3167 28.9068V38.5633C51.3167 38.8149 51.4167 39.0562 51.5946 39.2341C51.7725 39.412 52.0138 39.512 52.2654 39.512H52.2649ZM67.4321 39.512H78.2708C78.5224 39.512 78.7637 39.412 78.9416 39.2341C79.1195 39.0562 79.2194 38.8149 79.2194 38.5633V28.9068C79.2194 28.6552 79.1195 28.4139 78.9416 28.236C78.7637 28.0581 78.5224 27.9582 78.2708 27.9582H67.4321C67.3075 27.9582 67.1841 27.9827 67.069 28.0304C66.9539 28.0781 66.8494 28.148 66.7613 28.236C66.6732 28.3241 66.6033 28.4287 66.5556 28.5438C66.508 28.6589 66.4834 28.7822 66.4834 28.9068V38.5633C66.4834 38.6879 66.508 38.8113 66.5556 38.9264C66.6033 39.0415 66.6732 39.146 66.7613 39.2341C66.8494 39.3222 66.9539 39.3921 67.069 39.4398C67.1841 39.4874 67.3075 39.512 67.4321 39.512ZM82.4177 39.512H93.2559C93.5075 39.512 93.7488 39.412 93.9267 39.2341C94.1046 39.0562 94.2045 38.8149 94.2045 38.5633V28.9068C94.2045 28.6552 94.1046 28.4139 93.9267 28.236C93.7488 28.0581 93.5075 27.9582 93.2559 27.9582H82.4177C82.1661 27.9582 81.9248 28.0581 81.7469 28.236C81.569 28.4139 81.4691 28.6552 81.4691 28.9068V38.5633C81.4691 38.8149 81.569 39.0562 81.7469 39.2341C81.9248 39.412 82.1661 39.512 82.4177 39.512ZM52.2649 25.6183H63.1026C63.2272 25.6183 63.3506 25.5939 63.4657 25.5462C63.5809 25.4986 63.6855 25.4287 63.7737 25.3406C63.8618 25.2525 63.9317 25.1479 63.9794 25.0328C64.0271 24.9177 64.0517 24.7943 64.0517 24.6697V15.0131C64.0517 14.7615 63.9518 14.5202 63.7739 14.3423C63.596 14.1644 63.3547 14.0645 63.1031 14.0645H52.2654C52.0138 14.0645 51.7725 14.1644 51.5946 14.3423C51.4167 14.5202 51.3167 14.7615 51.3167 15.0131V24.6691C51.3167 24.7938 51.3412 24.9172 51.3888 25.0323C51.4365 25.1475 51.5063 25.2521 51.5944 25.3402C51.6825 25.4284 51.7871 25.4983 51.9022 25.546C52.0174 25.5937 52.1407 25.6183 52.2654 25.6183H52.2649ZM67.4321 25.6183H78.2708C78.5224 25.6183 78.7637 25.5183 78.9416 25.3404C79.1195 25.1625 79.2194 24.9212 79.2194 24.6697V15.0131C79.2194 14.7615 79.1195 14.5202 78.9416 14.3423C78.7637 14.1644 78.5224 14.0645 78.2708 14.0645H67.4321C67.3075 14.0645 67.1841 14.089 67.069 14.1367C66.9539 14.1844 66.8494 14.2543 66.7613 14.3423C66.6732 14.4304 66.6033 14.535 66.5556 14.6501C66.508 14.7652 66.4834 14.8885 66.4834 15.0131V24.6691C66.4834 24.7938 66.5079 24.9172 66.5555 25.0323C66.6031 25.1475 66.673 25.2521 66.7611 25.3402C66.8492 25.4284 66.9538 25.4983 67.0689 25.546C67.184 25.5937 67.3074 25.6183 67.4321 25.6183ZM82.4177 25.6183H93.2559C93.5075 25.6183 93.7488 25.5183 93.9267 25.3404C94.1046 25.1625 94.2045 24.9212 94.2045 24.6697V15.0131C94.2045 14.7615 94.1046 14.5202 93.9267 14.3423C93.7488 14.1644 93.5075 14.0645 93.2559 14.0645H82.4177C82.1661 14.0645 81.9248 14.1644 81.7469 14.3423C81.569 14.5202 81.4691 14.7615 81.4691 15.0131V24.6691C81.469 24.7938 81.4935 24.9172 81.5411 25.0323C81.5888 25.1475 81.6586 25.2521 81.7467 25.3402C81.8348 25.4284 81.9394 25.4983 82.0545 25.546C82.1697 25.5937 82.2931 25.6183 82.4177 25.6183ZM82.4177 11.7246H93.2559C93.5075 11.7246 93.7488 11.6246 93.9267 11.4467C94.1046 11.2688 94.2045 11.0275 94.2045 10.776V1.11942C94.2045 0.867836 94.1046 0.626553 93.9267 0.44865C93.7488 0.270748 93.5075 0.170795 93.2559 0.170795H82.4177C82.1661 0.170795 81.9248 0.270748 81.7469 0.44865C81.569 0.626553 81.4691 0.867836 81.4691 1.11942V10.776C81.4691 11.0275 81.569 11.2688 81.7469 11.4467C81.9248 11.6246 82.1661 11.7246 82.4177 11.7246ZM97.5354 39.512H108.374C108.498 39.512 108.622 39.4874 108.737 39.4398C108.852 39.3921 108.956 39.3222 109.044 39.2341C109.132 39.146 109.202 39.0415 109.25 38.9264C109.298 38.8113 109.322 38.6879 109.322 38.5633V28.9068C109.322 28.7822 109.298 28.6589 109.25 28.5438C109.202 28.4287 109.132 28.3241 109.044 28.236C108.956 28.148 108.852 28.0781 108.737 28.0304C108.622 27.9827 108.498 27.9582 108.374 27.9582H97.5359C97.2843 27.9582 97.043 28.0581 96.8651 28.236C96.6872 28.4139 96.5873 28.6552 96.5873 28.9068V38.5633C96.5873 38.8149 96.6872 39.0562 96.8651 39.2341C97.043 39.412 97.2843 39.512 97.5359 39.512" fill="#2496ED"/>
</svg>
