<svg width="700" height="1044" viewBox="0 0 700 1044" fill="none" xmlns="http://www.w3.org/2000/svg">
<path d="M112.072 262.383L109.508 257.311L111.921 252.584L122.703 231.295C123.93 228.939 124.552 226.313 124.512 223.655C124.412 220.716 123.554 217.852 122.021 215.344C120.483 212.899 118.373 210.867 115.873 209.426C113.27 207.94 110.32 207.175 107.324 207.208H77.5381C74.168 207.204 70.8698 208.185 68.0479 210.031C65.7173 211.524 63.7975 213.579 62.4642 216.008C61.131 218.437 60.4268 221.161 60.4159 223.933V285.648C86.3163 325.379 111.095 381.025 121.556 405.548L131.143 400.501L146.829 392.232L162.515 383.975L171.288 379.345L158.353 353.771L135.233 308.086L112.072 262.383ZM11.354 587.822C16.3135 593.136 22.374 597.297 29.1097 600.014L32.4219 600.945L52.796 604.427C56.586 624.518 67.2051 642.673 82.8473 655.806C114.491 682.402 162.672 723.97 207.059 762.474C212.875 767.515 218.604 772.492 224.247 777.404C230.123 782.506 235.855 787.489 241.442 792.352C270.238 817.389 294.479 838.557 307.04 849.546L281.538 907.29L246.377 936.183L230.16 949.481L219.155 958.542C218.697 958.747 217.14 958.493 215.336 957.242C214.731 956.815 214.171 956.327 213.665 955.785C213.154 955.236 212.71 954.627 212.344 953.972L213.49 950.557L228.627 905.706L243.752 860.844L245.243 856.425L243.559 854.968L236.73 849.087C236.513 848.893 232.772 845.678 226.365 840.159L209.176 825.368C163.801 786.338 73.0192 708.405 19.7824 663.639C8.88055 654.538 1.9137 641.566 0.339478 627.436C-1.2348 613.306 2.70544 599.114 11.3359 587.828L11.354 587.822ZM151.789 182.685C148.452 184.404 144.986 185.859 141.423 187.037C139.453 185.244 137.341 183.615 135.107 182.165C130.192 178.914 124.74 176.565 119.004 175.226C115.172 174.309 111.246 173.838 107.306 173.824H77.52C76.4581 173.824 75.4204 173.914 74.3766 173.981C55.6738 158.755 43.5049 134.461 43.5049 107.049C43.5049 61.0139 77.6949 23.5799 119.734 23.5799C144.947 23.5738 167.233 37.0653 181.146 57.7377C184.79 63.1326 187.808 68.9265 190.141 75.0071C192.196 80.468 193.708 86.1189 194.654 91.8775C195.52 96.8885 195.964 101.964 195.982 107.049C195.982 140.536 177.84 169.399 151.789 182.685ZM500 557.811C499.992 565.136 498.343 572.366 495.173 578.967C492.757 584.029 489.515 588.652 485.581 592.646C480.811 597.471 475.133 601.301 468.876 603.913C462.619 606.524 455.906 607.866 449.128 607.86H255.215L234.28 584.697L231.33 581.421L217.906 593.589L206.624 603.853L218.69 617.241L236.048 636.439L246.648 648.159L411.873 830.983C414.26 833.607 416.092 836.688 417.26 840.04C418.427 843.393 418.906 846.947 418.667 850.489C418.428 854.031 417.476 857.488 415.869 860.652C414.262 863.817 412.033 866.622 409.315 868.901L303.427 958.729C302.118 958.532 300.877 958.022 299.807 957.242C298.747 956.52 297.844 955.591 297.152 954.51L347.421 840.564L338.19 832.464C337.339 831.733 292.621 792.57 239.849 746.788C234.196 741.874 228.446 736.894 222.66 731.871C216.875 726.847 211.197 721.951 205.466 716.977C168.06 684.638 130.516 652.3 104.259 630.243C97.0119 624.143 91.4505 616.279 88.1082 607.407C94.5247 606.086 100.623 603.525 106.063 599.869C112.797 595.298 118.312 589.145 122.127 581.948C125.942 574.751 127.942 566.728 127.951 558.579V535.785L286.516 473.096C303.505 489.145 330.485 507.744 364.657 507.744H381.321V474.329H364.657C348.108 474.329 333.502 467.378 321.9 459.103L379.372 436.382L417.84 227.24L385.062 221.195L383.179 231.471L349.942 412.149L295.644 433.631L263.801 446.222L99.6979 511.099L94.6723 513.087V558.579C94.6788 561.286 94.0154 563.952 92.7414 566.339C91.4675 568.726 89.6227 570.76 87.3722 572.258C87.1731 572.385 86.9619 572.445 86.7689 572.566C84.4683 574.039 81.8505 574.943 79.1322 575.201C76.4138 575.46 73.6732 575.066 71.1369 574.053L67.8126 573.116L53.0011 570.583L40.0479 568.365C38.2738 567.479 36.6656 566.293 35.2937 564.859C33.5016 563.026 32.1691 560.793 31.4055 558.344C30.642 555.894 30.4693 553.298 30.9015 550.769L31.7884 545.48L36.2711 518.884L41.9362 485.252L116.645 445.866L151.638 427.406L167.324 419.143L186.31 409.133L215.807 393.586L296.452 351.087L303.62 183.604L304.724 157.86L271.427 156.415L263.939 330.499L200.724 363.829L146.878 257.311L152.392 246.395C157.039 237.247 158.726 226.875 157.218 216.722C199.203 200.341 229.315 157.437 229.315 107.049C229.303 102.789 229.072 98.5318 228.621 94.2953C290.763 99.675 362.359 111.559 386.727 135.652C436.657 184.964 500 330.747 500 424.25V557.811ZM265.562 965.566C267.758 970.955 271.021 975.842 275.154 979.932C279.287 984.022 284.205 987.23 289.611 989.363C302.16 994.289 315.408 992.337 324.995 984.201L430.86 894.367C436.987 889.196 442.011 882.841 445.631 875.68C449.25 868.52 451.391 860.701 451.925 852.693C452.459 844.684 451.375 836.65 448.738 829.071C446.102 821.492 441.966 814.523 436.579 808.582L285.393 641.287H449.11C468.346 641.304 487.012 634.738 502.015 622.675L600 684.04V775.313L496.024 701.569L476.772 728.842L603.469 818.664L672.772 928.543L583.33 973.351L475.879 919.554L460.971 949.427L583.33 1010.72L681.478 961.534L699.578 1042.12L700 1044H250.093L250.027 1042.12L247.825 978.205L264.03 964.907L265.562 965.566ZM498.54 120.922L570.805 79.341L587.403 108.307L515.137 149.905L498.54 120.922ZM528.658 194.756L613.026 177.638L619.638 210.351L535.294 227.481L528.658 194.756ZM441.78 64.3505L499.035 0L523.921 22.2198L466.691 86.5824L441.78 64.3505Z" fill="#727272" fill-opacity="0.05"/>
</svg>
