<svg width="138" height="166" viewBox="0 0 138 166" fill="none" xmlns="http://www.w3.org/2000/svg">
<path d="M2.8811 69.8946C2.8811 32.92 32.5424 2.88452 69.0408 2.88452C105.539 2.88452 135.201 32.92 135.201 69.8946C135.201 106.869 105.539 136.905 69.0408 136.905C32.5424 136.905 2.8811 106.869 2.8811 69.8946Z" fill="#F8951A"/>
<path d="M28.0524 116.325C28.0524 103.842 45.7403 93.7053 67.5101 93.7053C89.2799 93.7053 106.968 103.842 106.968 116.325C106.968 128.809 89.2799 138.946 67.5101 138.946C45.7403 138.946 28.0524 128.809 28.0524 116.325Z" fill="white"/>
<path d="M100.879 129.047C87.341 129.319 51.8631 129.319 36.8623 129.081L29.515 124.081C29.7531 123.741 29.6171 122.856 29.1409 121.428C25.6373 111.223 24.991 103.502 26.4196 89.9977C27.0659 83.8409 29.0388 75.2691 30.5695 71.9356C30.8076 71.3913 30.9097 69.9967 30.9097 66.9353C30.9437 51.3223 38.0869 33.6344 45.8424 29.9607C47.7812 29.0423 48.0193 29.0423 50.4004 30.2328C55.1626 32.6139 58.8022 37.8182 61.4894 46.152C62.2717 48.5331 61.9996 48.397 66.3196 48.397C68.4285 48.397 71.3198 48.499 72.7485 48.6011C75.9119 48.8732 75.9119 48.8392 76.7623 46.0159C79.8577 35.3011 87.5791 27.4436 92.4433 29.9947C100.845 34.4167 107.784 52.3768 107.24 68.432C107.104 72.2417 107.138 72.5138 107.75 74.3166C110.88 83.5688 110.607 110.679 107.308 118.298C107.172 118.571 106.866 119.523 106.56 120.441C106.288 121.326 105.641 122.89 105.165 123.877C104.587 125.067 104.417 126.088 104.587 126.53L100.879 129.047Z" fill="white"/>
<path d="M45.9104 35.6752C41.7265 40.0972 37.9509 48.3629 36.4202 56.4246C34.9235 64.5202 35.3657 66.9353 37.8488 63.9079C41.5565 59.3499 48.3595 54.5537 54.3122 52.3087C57.4756 51.1182 57.8158 50.812 57.6117 49.5875C56.4552 43.4307 50.7066 34.2466 47.9854 34.2466C47.4411 34.2126 46.9309 34.5867 45.9104 35.6752ZM87.9533 35.3691C85.2661 37.5461 82.9531 41.5259 81.0142 47.3085C79.8237 50.8801 79.7896 50.812 83.4293 52.1726C89.0418 54.2476 96.3211 59.2818 99.8247 63.4997C102.546 66.7652 103.09 65.0304 101.696 57.309C100.097 48.465 96.7973 40.9476 92.2052 35.8113C90.4024 33.8044 89.9262 33.7704 87.9533 35.3691ZM47.271 65.6427C38.0189 69.0782 35.7399 81.97 43.2232 88.6711C50.8767 95.5421 62.5439 89.2833 62.5099 78.2964C62.4419 69.7245 54.3802 63.0235 47.271 65.6427ZM86.1845 73.9424C82.9871 75.4051 82.6469 79.0787 85.5382 81.0176C88.5656 83.0585 92.6814 79.2148 90.9807 75.9153C90.0283 74.0785 87.8513 73.1601 86.1845 73.9424Z" fill="#5A5C5C"/>
<path d="M52.3053 74.7248C52.6795 74.9289 53.2238 75.4391 53.4959 75.8813C55.5368 79.2148 50.8087 82.8544 48.2575 79.9291C45.6043 76.9358 48.6997 72.922 52.3053 74.7248Z" fill="white"/>
<path d="M63.5644 94.8278C60.605 95.8482 59.3805 97.4129 59.4145 100.032C59.4485 103.162 62.3058 107.413 65.4352 109.08C67.3401 110.101 67.272 109.726 67.204 116.734C67.17 123.333 67.238 123.741 68.8027 124.285C71.2858 125.169 71.8301 123.843 71.9661 116.189L72.1022 109.76L73.4968 109.012C79.6876 105.679 81.5244 98.0592 76.7623 95.6101C74.1771 94.2835 66.4557 93.8413 63.5644 94.8278Z" fill="#5A5C5C"/>
<path d="M118.499 127.38C118.499 126.972 118.601 126.598 118.805 126.258C119.009 125.918 119.315 125.646 119.69 125.442C120.064 125.237 120.472 125.135 120.88 125.135C121.288 125.135 121.696 125.237 122.071 125.442C122.445 125.646 122.717 125.918 122.955 126.258C123.159 126.598 123.261 126.972 123.261 127.38C123.261 127.789 123.159 128.129 122.955 128.503C122.751 128.877 122.479 129.115 122.105 129.319C121.73 129.523 121.322 129.625 120.88 129.625C120.438 129.625 120.03 129.523 119.656 129.319C119.281 129.115 119.009 128.843 118.805 128.503C118.601 128.129 118.499 127.755 118.499 127.38ZM118.975 127.38C118.975 127.721 119.077 128.027 119.247 128.299C119.417 128.571 119.656 128.809 119.962 128.979C120.268 129.149 120.574 129.217 120.914 129.217C121.254 129.217 121.594 129.149 121.867 128.979C122.139 128.809 122.411 128.605 122.581 128.299C122.751 128.027 122.853 127.721 122.853 127.38C122.853 127.04 122.751 126.734 122.581 126.462C122.411 126.19 122.173 125.952 121.867 125.782C121.56 125.612 121.254 125.544 120.914 125.544C120.574 125.544 120.234 125.612 119.962 125.782C119.656 125.952 119.417 126.156 119.247 126.462C119.043 126.734 118.975 127.04 118.975 127.38ZM121.867 126.836C121.867 127.176 121.73 127.414 121.424 127.516L122.173 128.707H121.356L120.778 127.687H120.642V128.707H119.928V126.02H120.778C121.152 126.02 121.424 126.088 121.628 126.224C121.764 126.36 121.867 126.564 121.867 126.836ZM120.642 127.244H120.744C120.88 127.244 120.982 127.21 121.05 127.142C121.118 127.074 121.152 127.006 121.152 126.87C121.152 126.734 121.118 126.632 121.05 126.598C120.982 126.564 120.88 126.53 120.744 126.53H120.642V127.244Z" fill="black"/>
<path d="M24.6611 153.001C24.6611 155.416 23.9808 157.253 22.6202 158.511C21.2596 159.77 19.2867 160.416 16.7015 160.416H12.5857V145.857H17.1437C19.5248 145.857 21.3616 146.47 22.6882 147.728C24.0148 148.987 24.6611 150.756 24.6611 153.001ZM21.4637 153.069C21.4637 149.939 20.0691 148.375 17.3138 148.375H15.6811V157.865H17.0077C19.967 157.865 21.4637 156.266 21.4637 153.069ZM32.4846 160.62C30.6818 160.62 29.2872 160.11 28.2667 159.123C27.2463 158.137 26.736 156.742 26.736 154.906C26.736 153.035 27.2123 151.606 28.1307 150.586C29.0491 149.565 30.3417 149.055 32.0084 149.055C33.5731 149.055 34.7977 149.497 35.6821 150.416C36.5665 151.334 37.0087 152.558 37.0087 154.123V155.586H29.8314C29.8655 156.436 30.1036 157.117 30.6138 157.593C31.124 158.069 31.7703 158.307 32.6207 158.307C33.301 158.307 33.9133 158.239 34.5256 158.103C35.1378 157.967 35.7501 157.729 36.3964 157.423V159.77C35.8521 160.042 35.3079 160.246 34.6956 160.348C34.1174 160.552 33.369 160.62 32.4846 160.62ZM32.0764 151.232C31.4302 151.232 30.9199 151.436 30.5458 151.844C30.1716 152.252 29.9675 152.831 29.9335 153.579H34.1854C34.1854 152.831 33.9813 152.252 33.6071 151.844C33.233 151.436 32.7227 151.232 32.0764 151.232ZM45.6485 160.62C44.356 160.62 43.3015 160.144 42.5532 159.191H42.3831C42.4851 160.11 42.5532 160.654 42.5532 160.79V165.314H39.5258V149.259H42.0089L42.4511 150.688H42.5872C43.3015 149.599 44.356 149.021 45.7506 149.021C47.0772 149.021 48.0976 149.531 48.846 150.552C49.5943 151.572 49.9685 152.967 49.9685 154.803C49.9685 155.994 49.7984 157.014 49.4583 157.899C49.1181 158.783 48.6079 159.43 47.9616 159.906C47.2473 160.382 46.4989 160.62 45.6485 160.62ZM44.7301 151.504C43.9818 151.504 43.4376 151.742 43.0974 152.184C42.7572 152.661 42.5872 153.409 42.5532 154.463V154.803C42.5532 155.994 42.7232 156.844 43.0974 157.389C43.4376 157.899 44.0158 158.171 44.7982 158.171C46.1588 158.171 46.8391 157.048 46.8391 154.803C46.8391 153.715 46.669 152.899 46.3289 152.32C45.9887 151.776 45.4445 151.504 44.7301 151.504ZM55.479 160.416H52.4516V144.905H55.479V160.416ZM68.7789 154.837C68.7789 156.64 68.3027 158.069 67.3503 159.089C66.3979 160.11 65.0713 160.62 63.3705 160.62C62.316 160.62 61.3636 160.382 60.5472 159.906C59.7309 159.43 59.1186 158.749 58.6764 157.899C58.2342 157.048 58.0301 155.994 58.0301 154.837C58.0301 153.001 58.5063 151.606 59.4587 150.586C60.4112 149.565 61.7378 149.055 63.4726 149.055C64.527 149.055 65.4795 149.293 66.2958 149.769C67.1122 150.245 67.7245 150.892 68.1667 151.776C68.6089 152.661 68.7789 153.647 68.7789 154.837ZM61.0915 154.837C61.0915 155.926 61.2616 156.776 61.6357 157.355C62.0099 157.933 62.5882 158.205 63.4045 158.205C64.2209 158.205 64.7991 157.933 65.1393 157.355C65.4795 156.776 65.6835 155.96 65.6835 154.837C65.6835 153.749 65.5135 152.899 65.1393 152.354C64.7651 151.81 64.1869 151.538 63.3705 151.538C62.5541 151.538 61.9759 151.81 61.6017 152.354C61.2275 152.899 61.0915 153.715 61.0915 154.837ZM69.6973 149.259H73.0308L75.1398 155.518C75.3099 156.062 75.4459 156.708 75.514 157.457H75.582C75.65 156.776 75.7861 156.13 76.0242 155.518L78.0991 149.259H81.3646L76.6365 161.811C76.1943 162.967 75.582 163.852 74.7996 164.43C73.9833 165.008 73.0649 165.28 72.0104 165.28C71.5002 165.28 70.9559 165.212 70.4797 165.11V162.695C70.8539 162.797 71.228 162.831 71.6702 162.831C72.2145 162.831 72.6907 162.661 73.0649 162.321C73.473 161.981 73.7792 161.504 74.0173 160.824L74.1874 160.28L69.6973 149.259ZM95.0727 160.416H91.9774V154.123H86.1948V160.416H83.1334V145.857H86.2288V151.572H92.0114V145.857H95.1068V160.416H95.0727ZM106.4 160.416L105.992 158.987H105.822C105.481 159.498 105.039 159.906 104.427 160.178C103.815 160.45 103.134 160.586 102.386 160.586C101.093 160.586 100.107 160.246 99.4267 159.532C98.7464 158.817 98.4403 157.831 98.4403 156.504V149.225H101.468V155.79C101.468 156.606 101.604 157.185 101.91 157.593C102.216 158.001 102.658 158.205 103.27 158.205C104.121 158.205 104.733 157.933 105.107 157.355C105.481 156.776 105.686 155.858 105.686 154.531V149.293H108.713V160.45H106.4V160.416ZM118.135 149.055C119.462 149.055 120.482 149.565 121.23 150.586C121.979 151.606 122.353 153.035 122.353 154.803C122.353 156.64 121.979 158.069 121.196 159.089C120.414 160.11 119.394 160.62 118.067 160.62C116.774 160.62 115.72 160.144 114.972 159.191H114.768L114.257 160.416H111.944V144.905H114.972V148.511C114.972 148.953 114.938 149.701 114.836 150.722H114.972C115.686 149.633 116.74 149.055 118.135 149.055ZM117.149 151.504C116.4 151.504 115.856 151.742 115.516 152.184C115.176 152.626 115.006 153.409 114.972 154.463V154.803C114.972 155.994 115.142 156.844 115.516 157.389C115.89 157.933 116.434 158.171 117.217 158.171C117.829 158.171 118.339 157.899 118.713 157.321C119.088 156.742 119.258 155.926 119.258 154.803C119.258 153.681 119.088 152.899 118.713 152.32C118.339 151.742 117.795 151.504 117.149 151.504Z" fill="white"/>
</svg>
