<svg width="152" height="146" viewBox="0 0 152 146" fill="none" xmlns="http://www.w3.org/2000/svg">
<path d="M67.49 95.865L59.4583 98.0869C60.1566 100.1 60.7153 103.711 60.7153 108.572V132.459H69.7249V107.183C71.4016 105.169 73.2173 104.197 75.1731 104.197C76.1504 104.197 76.9187 104.406 77.7571 104.891L80.2016 96.6282C78.8045 96.0031 78.1763 95.8644 76.8493 95.8644C75.8714 95.8644 74.6839 96.0727 73.9161 96.4198C72.2394 97.2534 70.144 99.1282 68.817 100.933C68.817 98.9198 68.3284 97.3224 67.49 95.8644V95.865ZM36.4802 84.0604H35.5023V132.389H44.861V111.002H56.6647V103.017H44.861V91.9075H59.5979L60.1566 87.6714C51.2865 87.0462 43.2549 85.6578 36.4802 84.0604ZM14.6195 138.847L18.9497 143.847C23.1404 142.18 28.3785 138.431 29.775 132.459C30.2642 130.515 30.4038 129.265 30.4038 122.946V84.1301H20.975V123.988C20.975 129.195 20.7654 131.14 20.0666 132.945C19.1593 134.958 16.9939 137.319 14.6195 138.847ZM99.6178 114.336C99.6178 122.807 97.9416 126.418 94.1001 126.418C92.3544 126.418 90.3986 125.446 89.5603 123.502C88.862 121.696 88.4428 118.641 88.4428 114.475C88.4428 110.933 88.7919 108.433 89.3513 106.489C90.0495 104.267 91.7951 102.878 93.9605 102.878C95.5666 102.878 96.9637 103.573 97.8021 104.753C99.0591 106.42 99.6178 109.544 99.6178 114.336ZM105.136 128.223C108.069 124.751 109.396 120.516 109.396 114.405C109.396 108.642 108.208 104.684 105.485 101.351C102.552 97.7398 98.7794 96.0037 93.8905 96.0037C84.6713 96.0037 78.5254 103.434 78.5254 114.683C78.5254 125.932 84.6019 133.154 93.8905 133.154C99.1285 133.223 102.551 131.278 105.136 128.223ZM130.698 108.225C130.698 111.489 128.742 113.294 125.25 113.294C122.107 113.294 120.012 111.836 120.012 108.225C120.012 104.892 121.967 102.948 125.32 102.948C128.672 102.948 130.698 104.892 130.698 108.225ZM146.552 100.586L142.851 94.6843C140.755 96.6288 138.241 97.7398 135.796 97.7398C134.679 97.7398 134.051 97.6011 131.605 96.9759C129.161 96.2817 127.415 96.0733 125.46 96.0733C116.729 96.0733 111.072 100.795 111.072 108.156C111.072 113.433 113.447 116.766 118.405 118.085C116.38 118.571 114.215 119.613 113.237 120.793C112.538 121.627 112.189 122.738 112.189 124.057C112.189 125.168 112.468 126.14 112.888 126.973C113.377 127.737 114.006 128.362 114.843 128.709C116.45 129.335 119.034 129.751 123.015 129.82C125.11 129.82 126.367 129.89 126.787 129.89C129.231 130.029 130.488 130.445 131.465 130.931C132.374 131.487 133.072 132.737 133.072 134.126C133.072 135.515 132.234 136.903 130.907 137.737C129.72 138.569 127.765 138.917 125.25 138.917C121.129 138.917 118.824 137.389 118.824 134.542C118.824 133.292 118.964 133.015 119.244 132.251H111.002C110.653 132.945 110.234 133.917 110.234 135.862C110.234 138.292 111.142 140.375 113.028 142.18C116.1 145.166 121.129 146 125.948 146C131.256 146 136.425 144.749 139.428 141.417C141.314 139.333 142.152 137.042 142.152 134.056C142.152 130.862 141.244 128.431 139.219 126.418C136.844 124.126 134.12 123.293 128.881 123.224L124.062 123.154C123.155 123.154 122.596 122.807 122.596 122.321C122.596 121.349 123.853 120.516 126.158 119.405C126.856 119.474 127.066 119.474 127.485 119.474C134.749 119.474 140.056 115.03 140.056 108.85C140.056 106.489 139.358 104.684 138.032 103.017C139.148 103.156 139.498 103.226 140.335 103.226C142.71 103.226 144.596 102.462 146.552 100.587V100.586ZM34.1046 42.0513C22.9308 44.7579 15.3183 50.1044 15.3183 56.2153C15.3183 60.0347 18.2515 63.5057 23.0709 66.2141C21.6044 63.9231 20.8361 61.4231 20.8361 58.9237C20.9055 52.6044 25.8651 46.7018 34.1064 42.0496L34.1046 42.0513ZM152 66.0057C152 61.9786 149.485 58.2985 145.295 55.2431C145.644 56.4928 145.923 57.7425 145.923 58.9928C145.923 70.4502 129.79 80.3102 106.881 84.407C109.466 84.6844 112.12 84.8237 114.913 84.8237C135.377 84.7541 152 76.3527 152 66.0057ZM138.799 59.7566C138.799 55.5205 135.167 51.6321 128.951 48.4379C130.418 50.1735 131.186 52.0489 131.186 53.9928C131.186 64.2005 109.396 72.4637 82.4364 72.4637C55.5473 72.4637 33.6866 64.2005 33.6866 53.9928C33.6866 52.674 34.0357 51.4237 34.734 50.2437C30.4038 53.0902 27.9593 56.3535 27.9593 59.8257C27.9593 70.8663 52.7531 79.8243 83.3443 79.8243C113.935 79.8243 138.799 70.7276 138.799 59.7566ZM114.634 59.2011C103.319 66.4224 68.5379 69.1999 53.5915 59.8953C41.8578 52.605 45.9083 41.0088 12.3146 15.5941C7.91488 12.2611 13.1529 8.71985 16.4352 11.0114C19.718 13.303 16.7143 13.8585 23.3494 20.4547C36.7593 33.7869 36.6197 21.7741 38.7151 26.3573C43.1848 35.8702 52.9621 45.4527 52.9621 45.4527C62.81 51.8411 70.6321 53.2301 85.16 43.4392C94.3791 37.2586 90.6076 53.2992 113.167 41.7036C121.408 37.4675 121.059 40.314 129.44 28.7179C132.932 23.9269 139.567 32.3985 132.024 33.5786C129.021 34.065 123.922 37.3282 121.757 42.4669C118.614 50.1746 119.941 55.8688 114.633 59.2017L114.634 59.2011ZM51.9153 39.6198C49.1217 38.3701 46.1874 33.6482 45.0706 31.7734C48.2139 28.7179 46.9563 23.6489 45.1406 20.8715C43.395 18.094 41.2296 18.8579 38.9241 16.2889C36.5497 13.7192 39.8325 7.05339 42.8357 12.1921C54.0801 31.4263 61.4836 23.4411 70.6333 22.2605C79.4333 21.1495 87.2553 25.9405 89.6303 12.3999C90.0495 10.1779 92.2143 9.69209 92.4239 13.303C92.6335 16.9831 94.0306 25.8708 98.8495 26.9824C103.668 28.163 107.58 25.8714 108.697 24.6211C109.815 23.3714 110.443 23.5102 110.932 26.7049C111.421 29.8289 112.678 34.2037 119.453 29.3431C133.352 19.483 129.371 15.6637 134.819 13.0947C137.892 11.6366 142.78 16.3579 135.726 19.8992C125.669 24.9682 124.621 31.2179 118.266 35.1759C107.58 41.8418 110.862 35.4534 93.6809 33.0231C87.0463 32.1205 84.951 39.4115 79.7824 37.3282C67.9786 32.4676 59.6679 33.4398 51.9153 39.6198ZM89.1411 3.99793C89.5603 6.91408 90.0495 6.84501 91.0969 7.05339C92.1449 7.33084 93.4719 5.66438 93.4719 4.13724C93.5414 2.53985 92.773 1.5676 91.2364 1.63726C89.6303 1.70633 89.0716 2.47019 89.1411 3.99852V3.99793ZM140.825 9.20568C142.082 10.3863 145.435 9.62244 146.203 8.71985C148.228 6.49791 148.298 5.17855 147.25 3.65082C146.203 2.19275 144.038 2.40113 141.873 3.99793C139.707 5.59532 140.126 8.58112 140.825 9.20568ZM139.917 23.9269C138.869 25.3159 138.799 26.3572 139.568 27.1205C140.405 27.954 142.082 28.6488 143.269 27.7463C144.457 26.774 144.457 25.385 143.479 24.2044C142.431 22.9547 141.034 22.9547 139.917 23.9269ZM33.8968 6.56756C35.5029 7.05339 36.2712 8.58053 37.5982 6.84501C38.2965 6.01208 38.3665 4.83145 37.4587 3.58116C36.9 2.81789 34.2459 2.2624 33.1285 3.37337C32.011 4.48435 33.0584 6.28953 33.8968 6.56697V6.56756ZM1.1396 5.59532C4.07272 7.4005 5.95907 10.1089 8.19335 7.67853C8.96226 6.84501 9.8701 5.38694 8.26341 2.47019C7.07591 0.3185 3.23554 -0.515614 1.90791 0.318499C0.511412 1.08178 -1.16415 4.20631 1.1396 5.59532ZM28.1689 19.4134C29.0773 20.3856 30.6834 20.3166 31.6607 19.7605C32.5692 19.2056 32.429 17.7469 31.5212 16.4972C30.9631 15.7334 29.2863 15.3166 28.1689 16.4972C27.0514 17.6779 27.5401 18.7192 28.1689 19.4134Z" fill="#40BE46"/>
</svg>
